<svg version="1.1" viewBox="0.0 0.0 600.0 371.0" fill="none" stroke="none" stroke-linecap="square" stroke-miterlimit="10" width="600" height="371" xmlns:xlink="http://www.w3.org/1999/xlink" xmlns="http://www.w3.org/2000/svg"><path fill="#ffffff" d="M0 0L600.0 0L600.0 371.0L0 371.0L0 0Z" fill-rule="nonzero"/><path stroke="#333333" stroke-width="1.0" stroke-linecap="butt" d="M119.5 54.5L119.5 300.5" fill-rule="nonzero"/><path stroke="#cccccc" stroke-width="1.0" stroke-linecap="butt" d="M235.5 54.5L235.5 300.5" fill-rule="nonzero"/><path stroke="#cccccc" stroke-width="1.0" stroke-linecap="butt" d="M350.5 54.5L350.5 300.5" fill-rule="nonzero"/><path stroke="#cccccc" stroke-width="1.0" stroke-linecap="butt" d="M465.5 54.5L465.5 300.5" fill-rule="nonzero"/><path stroke="#cccccc" stroke-width="1.0" stroke-linecap="butt" d="M581.5 54.5L581.5 300.5" fill-rule="nonzero"/><clipPath id="id_0"><path d="M119.55 54.916668L581.45 54.916668L581.45 300.45L119.55 300.45L119.55 54.916668Z" clip-rule="nonzero"/></clipPath><path stroke="#000000" stroke-width="2.0" stroke-linecap="butt" stroke-opacity="0.0" clip-path="url(#id_0)" d="M120.0 94.0L120.0 69.0L348.0 69.0C349.10458 69.0 350.0 69.89543 350.0 71.0L350.0 92.0C350.0 93.10457 349.10458 94.0 348.0 94.0Z" fill-rule="nonzero"/><path fill="#267cd9" clip-path="url(#id_0)" d="M120.0 94.0L120.0 69.0L348.0 69.0C349.10458 69.0 350.0 69.89543 350.0 71.0L350.0 92.0C350.0 93.10457 349.10458 94.0 348.0 94.0Z" fill-rule="nonzero"/><path stroke="#000000" stroke-width="2.0" stroke-linecap="butt" stroke-opacity="0.0" clip-path="url(#id_0)" d="M120.0 133.0L120.0 108.0L464.0 108.0C465.10458 108.0 466.0 108.89543 466.0 110.0L466.0 131.0C466.0 132.10457 465.10458 133.0 464.0 133.0Z" fill-rule="nonzero"/><path fill="#267cd9" clip-path="url(#id_0)" d="M120.0 133.0L120.0 108.0L464.0 108.0C465.10458 108.0 466.0 108.89543 466.0 110.0L466.0 131.0C466.0 132.10457 465.10458 133.0 464.0 133.0Z" fill-rule="nonzero"/><path stroke="#000000" stroke-width="2.0" stroke-linecap="butt" stroke-opacity="0.0" clip-path="url(#id_0)" d="M120.0 171.0L120.0 146.0L522.0 146.0C523.10455 146.0 524.0 146.89543 524.0 148.0L524.0 169.0C524.0 170.10457 523.10455 171.0 522.0 171.0Z" fill-rule="nonzero"/><path fill="#267cd9" clip-path="url(#id_0)" d="M120.0 171.0L120.0 146.0L522.0 146.0C523.10455 146.0 524.0 146.89543 524.0 148.0L524.0 169.0C524.0 170.10457 523.10455 171.0 522.0 171.0Z" fill-rule="nonzero"/><path stroke="#000000" stroke-width="2.0" stroke-linecap="butt" stroke-opacity="0.0" clip-path="url(#id_0)" d="M120.0 210.0L120.0 185.0L175.0 185.0C176.10457 185.0 177.0 185.89543 177.0 187.0L177.0 208.0C177.0 209.10457 176.10457 210.0 175.0 210.0Z" fill-rule="nonzero"/><path fill="#267cd9" clip-path="url(#id_0)" d="M120.0 210.0L120.0 185.0L175.0 185.0C176.10457 185.0 177.0 185.89543 177.0 187.0L177.0 208.0C177.0 209.10457 176.10457 210.0 175.0 210.0Z" fill-rule="nonzero"/><path stroke="#000000" stroke-width="2.0" stroke-linecap="butt" stroke-opacity="0.0" clip-path="url(#id_0)" d="M120.0 249.0L120.0 224.0L175.0 224.0C176.10457 224.0 177.0 224.89543 177.0 226.0L177.0 247.0C177.0 248.10457 176.10457 249.0 175.0 249.0Z" fill-rule="nonzero"/><path fill="#267cd9" clip-path="url(#id_0)" d="M120.0 249.0L120.0 224.0L175.0 224.0C176.10457 224.0 177.0 224.89543 177.0 226.0L177.0 247.0C177.0 248.10457 176.10457 249.0 175.0 249.0Z" fill-rule="nonzero"/><path stroke="#000000" stroke-width="2.0" stroke-linecap="butt" stroke-opacity="0.0" clip-path="url(#id_0)" d="M120.0 287.0L120.0 262.0L233.0 262.0C234.10457 262.0 235.0 262.89542 235.0 264.0L235.0 285.0C235.0 286.10458 234.10457 287.0 233.0 287.0Z" fill-rule="nonzero"/><path fill="#267cd9" clip-path="url(#id_0)" d="M120.0 287.0L120.0 262.0L233.0 262.0C234.10457 262.0 235.0 262.89542 235.0 264.0L235.0 285.0C235.0 286.10458 234.10457 287.0 233.0 287.0Z" fill-rule="nonzero"/><path stroke="#267cd9" stroke-width="3.0" stroke-linejoin="round" stroke-linecap="round" d="M343.98126 82.640625L345.16876 82.640625L345.16876 83.515625L343.98126 83.515625L343.98126 85.5L342.90314 85.5L342.90314 83.515625L339.0125 83.515625L339.0125 82.875L342.825 76.96875L343.98126 76.96875L343.98126 82.640625ZM340.2469 82.640625L342.90314 82.640625L342.90314 78.453125L342.7625 78.6875L340.2469 82.640625Z" fill-rule="nonzero"/><path fill="#ffffff" d="M343.98126 82.640625L345.16876 82.640625L345.16876 83.515625L343.98126 83.515625L343.98126 85.5L342.90314 85.5L342.90314 83.515625L339.0125 83.515625L339.0125 82.875L342.825 76.96875L343.98126 76.96875L343.98126 82.640625ZM340.2469 82.640625L342.90314 82.640625L342.90314 78.453125L342.7625 78.6875L340.2469 82.640625Z" fill-rule="nonzero"/><path stroke="#267cd9" stroke-width="3.0" stroke-linejoin="round" stroke-linecap="round" d="M459.14374 115.96875L459.14374 116.875L458.9406 116.875Q457.675 116.90625 456.925 117.640625Q456.175 118.359375 456.05 119.671875Q456.7375 118.90625 457.89374 118.90625Q459.0031 118.90625 459.675 119.6875Q460.34686 120.46875 460.34686 121.71875Q460.34686 123.03125 459.6281 123.828125Q458.90936 124.625 457.6906 124.625Q456.47186 124.625 455.70624 123.6875Q454.95624 122.734375 454.95624 121.25L454.95624 120.84375Q454.95624 118.484375 455.95624 117.234375Q456.95624 115.984375 458.9406 115.96875L459.14374 115.96875ZM457.72186 119.8125Q457.15936 119.8125 456.6906 120.140625Q456.22186 120.46875 456.03436 120.984375L456.03436 121.375Q456.03436 122.4375 456.5031 123.078125Q456.9875 123.71875 457.6906 123.71875Q458.425 123.71875 458.84686 123.1875Q459.26874 122.640625 459.26874 121.765625Q459.26874 120.890625 458.84686 120.359375Q458.425 119.8125 457.72186 119.8125Z" fill-rule="nonzero"/><path fill="#ffffff" d="M459.14374 115.96875L459.14374 116.875L458.9406 116.875Q457.675 116.90625 456.925 117.640625Q456.175 118.359375 456.05 119.671875Q456.7375 118.90625 457.89374 118.90625Q459.0031 118.90625 459.675 119.6875Q460.34686 120.46875 460.34686 121.71875Q460.34686 123.03125 459.6281 123.828125Q458.90936 124.625 457.6906 124.625Q456.47186 124.625 455.70624 123.6875Q454.95624 122.734375 454.95624 121.25L454.95624 120.84375Q454.95624 118.484375 455.95624 117.234375Q456.95624 115.984375 458.9406 115.96875L459.14374 115.96875ZM457.72186 119.8125Q457.15936 119.8125 456.6906 120.140625Q456.22186 120.46875 456.03436 120.984375L456.03436 121.375Q456.03436 122.4375 456.5031 123.078125Q456.9875 123.71875 457.6906 123.71875Q458.425 123.71875 458.84686 123.1875Q459.26874 122.640625 459.26874 121.765625Q459.26874 120.890625 458.84686 120.359375Q458.425 119.8125 457.72186 119.8125Z" fill-rule="nonzero"/><path stroke="#267cd9" stroke-width="3.0" stroke-linejoin="round" stroke-linecap="round" d="M518.1312 154.57812L514.6 162.5L513.45935 162.5L516.975 154.85938L512.3656 154.85938L512.3656 153.96875L518.1312 153.96875L518.1312 154.57812Z" fill-rule="nonzero"/><path fill="#ffffff" d="M518.1312 154.57812L514.6 162.5L513.45935 162.5L516.975 154.85938L512.3656 154.85938L512.3656 153.96875L518.1312 153.96875L518.1312 154.57812Z" fill-rule="nonzero"/><path stroke="#267cd9" stroke-width="3.0" stroke-linejoin="round" stroke-linecap="round" d="M169.75313 201.5L168.675 201.5L168.675 194.28125L166.4875 195.07812L166.4875 194.09375L169.59688 192.92188L169.75313 192.92188L169.75313 201.5Z" fill-rule="nonzero"/><path fill="#ffffff" d="M169.75313 201.5L168.675 201.5L168.675 194.28125L166.4875 195.07812L166.4875 194.09375L169.59688 192.92188L169.75313 192.92188L169.75313 201.5Z" fill-rule="nonzero"/><path stroke="#267cd9" stroke-width="3.0" stroke-linejoin="round" stroke-linecap="round" d="M169.75313 240.5L168.675 240.5L168.675 233.28125L166.4875 234.07812L166.4875 233.09375L169.59688 231.92188L169.75313 231.92188L169.75313 240.5Z" fill-rule="nonzero"/><path fill="#ffffff" d="M169.75313 240.5L168.675 240.5L168.675 233.28125L166.4875 234.07812L166.4875 233.09375L169.59688 231.92188L169.75313 231.92188L169.75313 240.5Z" fill-rule="nonzero"/><path stroke="#267cd9" stroke-width="3.0" stroke-linejoin="round" stroke-linecap="round" d="M229.52188 278.5L223.92813 278.5L223.92813 277.71875L226.88126 274.4375Q227.5375 273.6875 227.7875 273.23438Q228.0375 272.76562 228.0375 272.26562Q228.0375 271.59375 227.63126 271.17188Q227.24063 270.73438 226.55313 270.73438Q225.75626 270.73438 225.30313 271.20312Q224.85 271.65625 224.85 272.48438L223.77188 272.48438Q223.77188 271.29688 224.52188 270.57812Q225.2875 269.84375 226.55313 269.84375Q227.75626 269.84375 228.44376 270.46875Q229.13126 271.09375 229.13126 272.14062Q229.13126 273.39062 227.52188 275.14062L225.24063 277.60938L229.52188 277.60938L229.52188 278.5Z" fill-rule="nonzero"/><path fill="#ffffff" d="M229.52188 278.5L223.92813 278.5L223.92813 277.71875L226.88126 274.4375Q227.5375 273.6875 227.7875 273.23438Q228.0375 272.76562 228.0375 272.26562Q228.0375 271.59375 227.63126 271.17188Q227.24063 270.73438 226.55313 270.73438Q225.75626 270.73438 225.30313 271.20312Q224.85 271.65625 224.85 272.48438L223.77188 272.48438Q223.77188 271.29688 224.52188 270.57812Q225.2875 269.84375 226.55313 269.84375Q227.75626 269.84375 228.44376 270.46875Q229.13126 271.09375 229.13126 272.14062Q229.13126 273.39062 227.52188 275.14062L225.24063 277.60938L229.52188 277.60938L229.52188 278.5Z" fill-rule="nonzero"/><path fill="#000000" d="M331.48438 349.45L334.78125 340.85626L336.0 340.85626L339.51562 349.45L338.23438 349.45L337.21875 346.84064L333.64062 346.84064L332.6875 349.45L331.48438 349.45ZM333.96875 345.91876L336.875 345.91876L335.98438 343.54376Q335.5625 342.46564 335.375 341.7625Q335.20312 342.59064 334.90625 343.40314L333.96875 345.91876ZM340.29688 349.45L340.29688 343.23126L341.23438 343.23126L341.23438 344.10626Q341.92188 343.09064 343.21875 343.09064Q343.78125 343.09064 344.25 343.29376Q344.73438 343.4969 344.96875 343.825Q345.20312 344.15314 345.29688 344.59064Q345.34375 344.8875 345.34375 345.6219L345.34375 349.45L344.29688 349.45L344.29688 345.66876Q344.29688 345.0125 344.17188 344.7Q344.04688 344.3875 343.73438 344.2Q343.42188 343.9969 343.0 343.9969Q342.32812 343.9969 341.82812 344.4344Q341.34375 344.85626 341.34375 346.04376L341.34375 349.45L340.29688 349.45ZM346.73438 349.45L346.73438 348.59064L350.70312 344.04376Q350.01562 344.075 349.5 344.075L346.96875 344.075L346.96875 343.23126L352.0625 343.23126L352.0625 343.91876L348.6875 347.8719L348.03125 348.59064Q348.75 348.54376 349.35938 348.54376L352.25 348.54376L352.25 349.45L346.73438 349.45ZM357.35938 348.6844Q356.76562 349.1844 356.21875 349.3875Q355.6875 349.59064 355.0625 349.59064Q354.03125 349.59064 353.48438 349.09064Q352.9375 348.59064 352.9375 347.8094Q352.9375 347.35626 353.14062 346.98126Q353.34375 346.59064 353.6875 346.3719Q354.03125 346.1375 354.45312 346.02814Q354.75 345.9344 355.39062 345.85626Q356.65625 345.71564 357.26562 345.4969Q357.26562 345.27814 357.26562 345.23126Q357.26562 344.575 356.96875 344.3094Q356.5625 343.96564 355.76562 343.96564Q355.03125 343.96564 354.67188 344.23126Q354.3125 344.48126 354.14062 345.1375L353.10938 344.9969Q353.25 344.34064 353.57812 343.9344Q353.90625 343.52814 354.51562 343.3094Q355.125 343.09064 355.92188 343.09064Q356.71875 343.09064 357.21875 343.27814Q357.71875 343.46564 357.95312 343.7469Q358.1875 344.02814 358.28125 344.46564Q358.32812 344.73126 358.32812 345.4344L358.32812 346.84064Q358.32812 348.3094 358.39062 348.7Q358.46875 349.09064 358.67188 349.45L357.5625 349.45Q357.40625 349.1219 357.35938 348.6844ZM357.26562 346.325Q356.6875 346.5594 355.54688 346.73126Q354.89062 346.825 354.625 346.95Q354.35938 347.0594 354.20312 347.27814Q354.0625 347.4969 354.0625 347.77814Q354.0625 348.2 354.375 348.48126Q354.70312 348.7625 355.3125 348.7625Q355.92188 348.7625 356.39062 348.4969Q356.875 348.23126 357.09375 347.7625Q357.26562 347.40314 357.26562 346.71564L357.26562 346.325ZM360.29688 349.45L360.29688 340.85626L361.34375 340.85626L361.34375 343.9344Q362.07812 343.09064 363.20312 343.09064Q363.90625 343.09064 364.40625 343.3719Q364.92188 343.6375 365.14062 344.1219Q365.35938 344.59064 365.35938 345.5125L365.35938 349.45L364.3125 349.45L364.3125 345.5125Q364.3125 344.71564 363.96875 344.35626Q363.625 343.9969 363.0 343.9969Q362.53125 343.9969 362.10938 344.2469Q361.70312 344.48126 361.51562 344.90314Q361.34375 345.3094 361.34375 346.04376L361.34375 349.45L360.29688 349.45ZM367.26562 349.45L367.26562 340.85626L368.32812 340.85626L368.32812 349.45L367.26562 349.45Z" fill-rule="nonzero"/><path fill="#000000" d="M70.01875 85.01667L68.97188 85.01667L68.97188 78.29792Q68.58125 78.657295 67.95625 79.032295Q67.34688 79.39167 66.8625 79.563545L66.8625 78.54792Q67.7375 78.126045 68.39375 77.54792Q69.06563 76.95417 69.34688 76.39167L70.01875 76.39167L70.01875 85.01667ZM73.20625 83.032295L74.22188 82.938545Q74.34688 83.657295 74.70625 83.98542Q75.08125 84.29792 75.64375 84.29792Q76.12813 84.29792 76.4875 84.07917Q76.8625 83.844795 77.09688 83.48542Q77.33125 83.11042 77.4875 82.48542Q77.64375 81.844795 77.64375 81.188545Q77.64375 81.11042 77.64375 80.969795Q77.33125 81.469795 76.78438 81.79792Q76.2375 82.11042 75.59688 82.11042Q74.51875 82.11042 73.78438 81.344795Q73.05 80.563545 73.05 79.29792Q73.05 77.98542 73.81563 77.188545Q74.59688 76.39167 75.75313 76.39167Q76.58125 76.39167 77.26875 76.844795Q77.97188 77.29792 78.33125 78.14167Q78.69063 78.969795 78.69063 80.54792Q78.69063 82.188545 78.33125 83.17292Q77.9875 84.14167 77.26875 84.657295Q76.56563 85.157295 75.62813 85.157295Q74.6125 85.157295 73.97188 84.61042Q73.33125 84.04792 73.20625 83.032295ZM77.51875 79.23542Q77.51875 78.32917 77.03438 77.79792Q76.56563 77.26667 75.87813 77.26667Q75.175 77.26667 74.64375 77.844795Q74.12813 78.407295 74.12813 79.32917Q74.12813 80.14167 74.62813 80.657295Q75.12813 81.17292 75.84688 81.17292Q76.58125 81.17292 77.05 80.657295Q77.51875 80.14167 77.51875 79.23542ZM82.89375 82.57917L83.925 82.438545Q83.95625 83.42292 84.28438 83.782295Q84.6125 84.14167 85.20625 84.14167Q85.62813 84.14167 85.94063 83.95417Q86.25313 83.751045 86.3625 83.42292Q86.4875 83.07917 86.4875 82.344795L86.4875 76.42292L87.6125 76.42292L87.6125 82.282295Q87.6125 83.36042 87.34688 83.95417Q87.09688 84.54792 86.53438 84.86042Q85.97188 85.157295 85.20625 85.157295Q84.08125 85.157295 83.47188 84.51667Q82.87813 83.86042 82.89375 82.57917ZM93.40938 84.251045Q92.81563 84.751045 92.26875 84.95417Q91.7375 85.157295 91.1125 85.157295Q90.08125 85.157295 89.53438 84.657295Q88.9875 84.157295 88.9875 83.376045Q88.9875 82.92292 89.19063 82.54792Q89.39375 82.157295 89.7375 81.938545Q90.08125 81.70417 90.50313 81.594795Q90.8 81.501045 91.44063 81.42292Q92.70625 81.282295 93.31563 81.063545Q93.31563 80.844795 93.31563 80.79792Q93.31563 80.14167 93.01875 79.876045Q92.6125 79.532295 91.81563 79.532295Q91.08125 79.532295 90.72188 79.79792Q90.3625 80.04792 90.19063 80.70417L89.15938 80.563545Q89.3 79.907295 89.62813 79.501045Q89.95625 79.094795 90.56563 78.876045Q91.175 78.657295 91.97188 78.657295Q92.76875 78.657295 93.26875 78.844795Q93.76875 79.032295 94.00313 79.313545Q94.2375 79.594795 94.33125 80.032295Q94.37813 80.29792 94.37813 81.001045L94.37813 82.407295Q94.37813 83.876045 94.44063 84.26667Q94.51875 84.657295 94.72188 85.01667L93.6125 85.01667Q93.45625 84.688545 93.40938 84.251045ZM93.31563 81.89167Q92.7375 82.126045 91.59688 82.29792Q90.94063 82.39167 90.675 82.51667Q90.40938 82.626045 90.25313 82.844795Q90.1125 83.063545 90.1125 83.344795Q90.1125 83.76667 90.425 84.04792Q90.75313 84.32917 91.3625 84.32917Q91.97188 84.32917 92.44063 84.063545Q92.925 83.79792 93.14375 83.32917Q93.31563 82.969795 93.31563 82.282295L93.31563 81.89167ZM96.34688 85.01667L96.34688 76.42292L97.39375 76.42292L97.39375 79.501045Q98.12813 78.657295 99.25313 78.657295Q99.95625 78.657295 100.45625 78.938545Q100.97188 79.20417 101.19063 79.688545Q101.40938 80.157295 101.40938 81.07917L101.40938 85.01667L100.3625 85.01667L100.3625 81.07917Q100.3625 80.282295 100.01875 79.92292Q99.675 79.563545 99.05 79.563545Q98.58125 79.563545 98.15938 79.813545Q97.75313 80.04792 97.56563 80.469795Q97.39375 80.876045 97.39375 81.61042L97.39375 85.01667L96.34688 85.01667ZM103.33125 85.01667L103.33125 78.79792L104.28438 78.79792L104.28438 79.73542Q104.64375 79.07917 104.94063 78.876045Q105.25313 78.657295 105.62813 78.657295Q106.15938 78.657295 106.70625 78.98542L106.34688 79.969795Q105.95625 79.73542 105.58125 79.73542Q105.22188 79.73542 104.94063 79.95417Q104.675 80.157295 104.56563 80.532295Q104.37813 81.094795 104.37813 81.751045L104.37813 85.01667L103.33125 85.01667ZM111.59688 83.01667L112.69063 83.14167Q112.44063 84.094795 111.7375 84.626045Q111.03438 85.157295 109.95625 85.157295Q108.59688 85.157295 107.78438 84.313545Q106.9875 83.469795 106.9875 81.95417Q106.9875 80.39167 107.8 79.532295Q108.6125 78.657295 109.89375 78.657295Q111.14375 78.657295 111.925 79.501045Q112.72188 80.344795 112.72188 81.89167Q112.72188 81.98542 112.72188 82.17292L108.08125 82.17292Q108.14375 83.20417 108.65938 83.751045Q109.175 84.282295 109.95625 84.282295Q110.53438 84.282295 110.94063 83.98542Q111.3625 83.67292 111.59688 83.01667ZM108.14375 81.313545L111.6125 81.313545Q111.55 80.51667 111.22188 80.126045Q110.70625 79.51667 109.90938 79.51667Q109.175 79.51667 108.675 80.001045Q108.19063 80.48542 108.14375 81.313545Z" fill-rule="nonzero"/><path fill="#000000" d="M70.01875 123.683334L68.97188 123.683334L68.97188 116.964584Q68.58125 117.32396 67.95625 117.69896Q67.34688 118.058334 66.8625 118.23021L66.8625 117.214584Q67.7375 116.79271 68.39375 116.214584Q69.06563 115.620834 69.34688 115.058334L70.01875 115.058334L70.01875 123.683334ZM74.675 119.027084Q74.01875 118.777084 73.69063 118.339584Q73.37813 117.88646 73.37813 117.277084Q73.37813 116.339584 74.05 115.69896Q74.7375 115.058334 75.84688 115.058334Q76.97188 115.058334 77.65938 115.714584Q78.34688 116.370834 78.34688 117.308334Q78.34688 117.902084 78.03438 118.339584Q77.72188 118.777084 77.08125 119.027084Q77.87813 119.277084 78.28438 119.85521Q78.69063 120.433334 78.69063 121.23021Q78.69063 122.32396 77.90938 123.07396Q77.14375 123.82396 75.8625 123.82396Q74.59688 123.82396 73.81563 123.07396Q73.03438 122.32396 73.03438 121.19896Q73.03438 120.35521 73.45625 119.79271Q73.89375 119.23021 74.675 119.027084ZM74.45625 117.23021Q74.45625 117.839584 74.84688 118.23021Q75.25313 118.620834 75.87813 118.620834Q76.4875 118.620834 76.87813 118.245834Q77.26875 117.85521 77.26875 117.29271Q77.26875 116.714584 76.8625 116.32396Q76.45625 115.91771 75.8625 115.91771Q75.25313 115.91771 74.84688 116.308334Q74.45625 116.69896 74.45625 117.23021ZM74.12813 121.19896Q74.12813 121.652084 74.33125 122.07396Q74.55 122.495834 74.97188 122.73021Q75.39375 122.964584 75.87813 122.964584Q76.62813 122.964584 77.1125 122.48021Q77.6125 121.995834 77.6125 121.245834Q77.6125 120.48021 77.1125 119.98021Q76.6125 119.48021 75.84688 119.48021Q75.09688 119.48021 74.6125 119.98021Q74.12813 120.464584 74.12813 121.19896ZM82.89375 121.245834L83.925 121.10521Q83.95625 122.089584 84.28438 122.44896Q84.6125 122.808334 85.20625 122.808334Q85.62813 122.808334 85.94063 122.620834Q86.25313 122.41771 86.3625 122.089584Q86.4875 121.745834 86.4875 121.01146L86.4875 115.089584L87.6125 115.089584L87.6125 120.94896Q87.6125 122.027084 87.34688 122.620834Q87.09688 123.214584 86.53438 123.527084Q85.97188 123.82396 85.20625 123.82396Q84.08125 123.82396 83.47188 123.183334Q82.87813 122.527084 82.89375 121.245834ZM93.40938 122.91771Q92.81563 123.41771 92.26875 123.620834Q91.7375 123.82396 91.1125 123.82396Q90.08125 123.82396 89.53438 123.32396Q88.9875 122.82396 88.9875 122.04271Q88.9875 121.589584 89.19063 121.214584Q89.39375 120.82396 89.7375 120.60521Q90.08125 120.370834 90.50313 120.26146Q90.8 120.16771 91.44063 120.089584Q92.70625 119.94896 93.31563 119.73021Q93.31563 119.51146 93.31563 119.464584Q93.31563 118.808334 93.01875 118.54271Q92.6125 118.19896 91.81563 118.19896Q91.08125 118.19896 90.72188 118.464584Q90.3625 118.714584 90.19063 119.370834L89.15938 119.23021Q89.3 118.57396 89.62813 118.16771Q89.95625 117.76146 90.56563 117.54271Q91.175 117.32396 91.97188 117.32396Q92.76875 117.32396 93.26875 117.51146Q93.76875 117.69896 94.00313 117.98021Q94.2375 118.26146 94.33125 118.69896Q94.37813 118.964584 94.37813 119.66771L94.37813 121.07396Q94.37813 122.54271 94.44063 122.933334Q94.51875 123.32396 94.72188 123.683334L93.6125 123.683334Q93.45625 123.35521 93.40938 122.91771ZM93.31563 120.558334Q92.7375 120.79271 91.59688 120.964584Q90.94063 121.058334 90.675 121.183334Q90.40938 121.29271 90.25313 121.51146Q90.1125 121.73021 90.1125 122.01146Q90.1125 122.433334 90.425 122.714584Q90.75313 122.995834 91.3625 122.995834Q91.97188 122.995834 92.44063 122.73021Q92.925 122.464584 93.14375 121.995834Q93.31563 121.63646 93.31563 120.94896L93.31563 120.558334ZM96.34688 123.683334L96.34688 115.089584L97.39375 115.089584L97.39375 118.16771Q98.12813 117.32396 99.25313 117.32396Q99.95625 117.32396 100.45625 117.60521Q100.97188 117.870834 101.19063 118.35521Q101.40938 118.82396 101.40938 119.745834L101.40938 123.683334L100.3625 123.683334L100.3625 119.745834Q100.3625 118.94896 100.01875 118.589584Q99.675 118.23021 99.05 118.23021Q98.58125 118.23021 98.15938 118.48021Q97.75313 118.714584 97.56563 119.13646Q97.39375 119.54271 97.39375 120.277084L97.39375 123.683334L96.34688 123.683334ZM103.33125 123.683334L103.33125 117.464584L104.28438 117.464584L104.28438 118.402084Q104.64375 117.745834 104.94063 117.54271Q105.25313 117.32396 105.62813 117.32396Q106.15938 117.32396 106.70625 117.652084L106.34688 118.63646Q105.95625 118.402084 105.58125 118.402084Q105.22188 118.402084 104.94063 118.620834Q104.675 118.82396 104.56563 119.19896Q104.37813 119.76146 104.37813 120.41771L104.37813 123.683334L103.33125 123.683334ZM111.59688 121.683334L112.69063 121.808334Q112.44063 122.76146 111.7375 123.29271Q111.03438 123.82396 109.95625 123.82396Q108.59688 123.82396 107.78438 122.98021Q106.9875 122.13646 106.9875 120.620834Q106.9875 119.058334 107.8 118.19896Q108.6125 117.32396 109.89375 117.32396Q111.14375 117.32396 111.925 118.16771Q112.72188 119.01146 112.72188 120.558334Q112.72188 120.652084 112.72188 120.839584L108.08125 120.839584Q108.14375 121.870834 108.65938 122.41771Q109.175 122.94896 109.95625 122.94896Q110.53438 122.94896 110.94063 122.652084Q111.3625 122.339584 111.59688 121.683334ZM108.14375 119.98021L111.6125 119.98021Q111.55 119.183334 111.22188 118.79271Q110.70625 118.183334 109.90938 118.183334Q109.175 118.183334 108.675 118.66771Q108.19063 119.152084 108.14375 119.98021Z" fill-rule="nonzero"/><path fill="#000000" d="M71.59688 161.33438L71.59688 162.35L65.90938 162.35Q65.90938 161.975 66.03438 161.61563Q66.25313 161.0375 66.72188 160.475Q67.20625 159.9125 68.1125 159.17813Q69.51875 158.02188 70.00313 157.35Q70.50313 156.67813 70.50313 156.08438Q70.50313 155.45938 70.05 155.0375Q69.59688 154.6 68.87813 154.6Q68.1125 154.6 67.65938 155.05313Q67.20625 155.50626 67.19063 156.31876L66.1125 156.20938Q66.22188 154.99063 66.94063 154.36563Q67.675 153.725 68.90938 153.725Q70.14375 153.725 70.8625 154.4125Q71.58125 155.1 71.58125 156.11563Q71.58125 156.63126 71.3625 157.13126Q71.15938 157.61563 70.65938 158.17813Q70.175 158.725 69.05 159.67813Q68.09688 160.475 67.81563 160.77188Q67.55 161.05313 67.37813 161.33438L71.59688 161.33438ZM73.05 158.11563Q73.05 156.58438 73.3625 155.6625Q73.675 154.725 74.28438 154.225Q74.90938 153.725 75.84688 153.725Q76.53438 153.725 77.05 154.00626Q77.58125 154.2875 77.925 154.81876Q78.26875 155.33438 78.45625 156.08438Q78.64375 156.83438 78.64375 158.11563Q78.64375 159.63126 78.33125 160.55313Q78.03438 161.475 77.40938 161.99063Q76.8 162.49063 75.84688 162.49063Q74.6125 162.49063 73.89375 161.6Q73.05 160.5375 73.05 158.11563ZM74.12813 158.11563Q74.12813 160.225 74.62813 160.92813Q75.12813 161.63126 75.84688 161.63126Q76.58125 161.63126 77.06563 160.92813Q77.56563 160.225 77.56563 158.11563Q77.56563 155.99063 77.06563 155.30313Q76.58125 154.6 75.83125 154.6Q75.1125 154.6 74.675 155.20938Q74.12813 155.99063 74.12813 158.11563ZM82.89375 159.9125L83.925 159.77188Q83.95625 160.75626 84.28438 161.11563Q84.6125 161.475 85.20625 161.475Q85.62813 161.475 85.94063 161.2875Q86.25313 161.08438 86.3625 160.75626Q86.4875 160.4125 86.4875 159.67813L86.4875 153.75626L87.6125 153.75626L87.6125 159.61563Q87.6125 160.69376 87.34688 161.2875Q87.09688 161.88126 86.53438 162.19376Q85.97188 162.49063 85.20625 162.49063Q84.08125 162.49063 83.47188 161.85Q82.87813 161.19376 82.89375 159.9125ZM93.40938 161.58438Q92.81563 162.08438 92.26875 162.2875Q91.7375 162.49063 91.1125 162.49063Q90.08125 162.49063 89.53438 161.99063Q88.9875 161.49063 88.9875 160.70938Q88.9875 160.25626 89.19063 159.88126Q89.39375 159.49063 89.7375 159.27188Q90.08125 159.0375 90.50313 158.92813Q90.8 158.83438 91.44063 158.75626Q92.70625 158.61563 93.31563 158.39688Q93.31563 158.17813 93.31563 158.13126Q93.31563 157.475 93.01875 157.20938Q92.6125 156.86563 91.81563 156.86563Q91.08125 156.86563 90.72188 157.13126Q90.3625 157.38126 90.19063 158.0375L89.15938 157.89688Q89.3 157.24063 89.62813 156.83438Q89.95625 156.42813 90.56563 156.20938Q91.175 155.99063 91.97188 155.99063Q92.76875 155.99063 93.26875 156.17813Q93.76875 156.36563 94.00313 156.64688Q94.2375 156.92813 94.33125 157.36563Q94.37813 157.63126 94.37813 158.33438L94.37813 159.74063Q94.37813 161.20938 94.44063 161.6Q94.51875 161.99063 94.72188 162.35L93.6125 162.35Q93.45625 162.02188 93.40938 161.58438ZM93.31563 159.225Q92.7375 159.45938 91.59688 159.63126Q90.94063 159.725 90.675 159.85Q90.40938 159.95938 90.25313 160.17813Q90.1125 160.39688 90.1125 160.67813Q90.1125 161.1 90.425 161.38126Q90.75313 161.6625 91.3625 161.6625Q91.97188 161.6625 92.44063 161.39688Q92.925 161.13126 93.14375 160.6625Q93.31563 160.30313 93.31563 159.61563L93.31563 159.225ZM96.34688 162.35L96.34688 153.75626L97.39375 153.75626L97.39375 156.83438Q98.12813 155.99063 99.25313 155.99063Q99.95625 155.99063 100.45625 156.27188Q100.97188 156.5375 101.19063 157.02188Q101.40938 157.49063 101.40938 158.4125L101.40938 162.35L100.3625 162.35L100.3625 158.4125Q100.3625 157.61563 100.01875 157.25626Q99.675 156.89688 99.05 156.89688Q98.58125 156.89688 98.15938 157.14688Q97.75313 157.38126 97.56563 157.80313Q97.39375 158.20938 97.39375 158.94376L97.39375 162.35L96.34688 162.35ZM103.33125 162.35L103.33125 156.13126L104.28438 156.13126L104.28438 157.06876Q104.64375 156.4125 104.94063 156.20938Q105.25313 155.99063 105.62813 155.99063Q106.15938 155.99063 106.70625 156.31876L106.34688 157.30313Q105.95625 157.06876 105.58125 157.06876Q105.22188 157.06876 104.94063 157.2875Q104.675 157.49063 104.56563 157.86563Q104.37813 158.42813 104.37813 159.08438L104.37813 162.35L103.33125 162.35ZM111.59688 160.35L112.69063 160.475Q112.44063 161.42813 111.7375 161.95938Q111.03438 162.49063 109.95625 162.49063Q108.59688 162.49063 107.78438 161.64688Q106.9875 160.80313 106.9875 159.2875Q106.9875 157.725 107.8 156.86563Q108.6125 155.99063 109.89375 155.99063Q111.14375 155.99063 111.925 156.83438Q112.72188 157.67813 112.72188 159.225Q112.72188 159.31876 112.72188 159.50626L108.08125 159.50626Q108.14375 160.5375 108.65938 161.08438Q109.175 161.61563 109.95625 161.61563Q110.53438 161.61563 110.94063 161.31876Q111.3625 161.00626 111.59688 160.35ZM108.14375 158.64688L111.6125 158.64688Q111.55 157.85 111.22188 157.45938Q110.70625 156.85 109.90938 156.85Q109.175 156.85 108.675 157.33438Q108.19063 157.81876 108.14375 158.64688Z" fill-rule="nonzero"/><path fill="#000000" d="M18.534374 201.01666L21.83125 192.42291L23.05 192.42291L26.565624 201.01666L25.284374 201.01666L24.26875 198.40729L20.690624 198.40729L19.7375 201.01666L18.534374 201.01666ZM21.01875 197.48541L23.925 197.48541L23.034374 195.11041Q22.6125 194.03229 22.425 193.32916Q22.253124 194.15729 21.95625 194.96979L21.01875 197.48541ZM20.909374 191.57916L20.909374 190.37604L22.003124 190.37604L22.003124 191.57916L20.909374 191.57916ZM23.096874 191.57916L23.096874 190.37604L24.190624 190.37604L24.190624 191.57916L23.096874 191.57916ZM27.315624 201.01666L27.315624 192.42291L28.378124 192.42291L28.378124 201.01666L27.315624 201.01666ZM32.64375 200.07916L32.8 201.00104Q32.346874 201.09479 32.003124 201.09479Q31.425 201.09479 31.1125 200.92291Q30.8 200.73541 30.659374 200.43854Q30.534374 200.14166 30.534374 199.18854L30.534374 195.61041L29.76875 195.61041L29.76875 194.79791L30.534374 194.79791L30.534374 193.25104L31.58125 192.62604L31.58125 194.79791L32.64375 194.79791L32.64375 195.61041L31.58125 195.61041L31.58125 199.25104Q31.58125 199.70416 31.628124 199.82916Q31.690624 199.95416 31.815624 200.03229Q31.940624 200.11041 32.175 200.11041Q32.3625 200.11041 32.64375 200.07916ZM37.596874 199.01666L38.690624 199.14166Q38.440624 200.09479 37.7375 200.62604Q37.034374 201.15729 35.95625 201.15729Q34.596874 201.15729 33.784374 200.31354Q32.9875 199.46979 32.9875 197.95416Q32.9875 196.39166 33.8 195.53229Q34.6125 194.65729 35.89375 194.65729Q37.14375 194.65729 37.925 195.50104Q38.721874 196.34479 38.721874 197.89166Q38.721874 197.98541 38.721874 198.17291L34.08125 198.17291Q34.14375 199.20416 34.659374 199.75104Q35.175 200.28229 35.95625 200.28229Q36.534374 200.28229 36.940624 199.98541Q37.3625 199.67291 37.596874 199.01666ZM34.14375 197.31354L37.6125 197.31354Q37.55 196.51666 37.221874 196.12604Q36.70625 195.51666 35.909374 195.51666Q35.175 195.51666 34.675 196.00104Q34.190624 196.48541 34.14375 197.31354ZM40.33125 201.01666L40.33125 194.79791L41.284374 194.79791L41.284374 195.73541Q41.64375 195.07916 41.940624 194.87604Q42.253124 194.65729 42.628124 194.65729Q43.159374 194.65729 43.70625 194.98541L43.346874 195.96979Q42.95625 195.73541 42.58125 195.73541Q42.221874 195.73541 41.940624 195.95416Q41.675 196.15729 41.565624 196.53229Q41.378124 197.09479 41.378124 197.75104L41.378124 201.01666L40.33125 201.01666ZM51.409374 200.25104Q50.815624 200.75104 50.26875 200.95416Q49.7375 201.15729 49.1125 201.15729Q48.08125 201.15729 47.534374 200.65729Q46.9875 200.15729 46.9875 199.37604Q46.9875 198.92291 47.190624 198.54791Q47.39375 198.15729 47.7375 197.93854Q48.08125 197.70416 48.503124 197.59479Q48.8 197.50104 49.440624 197.42291Q50.70625 197.28229 51.315624 197.06354Q51.315624 196.84479 51.315624 196.79791Q51.315624 196.14166 51.01875 195.87604Q50.6125 195.53229 49.815624 195.53229Q49.08125 195.53229 48.721874 195.79791Q48.3625 196.04791 48.190624 196.70416L47.159374 196.56354Q47.3 195.90729 47.628124 195.50104Q47.95625 195.09479 48.565624 194.87604Q49.175 194.65729 49.971874 194.65729Q50.76875 194.65729 51.26875 194.84479Q51.76875 195.03229 52.003124 195.31354Q52.2375 195.59479 52.33125 196.03229Q52.378124 196.29791 52.378124 197.00104L52.378124 198.40729Q52.378124 199.87604 52.440624 200.26666Q52.51875 200.65729 52.721874 201.01666L51.6125 201.01666Q51.45625 200.68854 51.409374 200.25104ZM51.315624 197.89166Q50.7375 198.12604 49.596874 198.29791Q48.940624 198.39166 48.675 198.51666Q48.409374 198.62604 48.253124 198.84479Q48.1125 199.06354 48.1125 199.34479Q48.1125 199.76666 48.425 200.04791Q48.753124 200.32916 49.3625 200.32916Q49.971874 200.32916 50.440624 200.06354Q50.925 199.79791 51.14375 199.32916Q51.315624 198.96979 51.315624 198.28229L51.315624 197.89166ZM54.315624 201.01666L54.315624 192.42291L55.378124 192.42291L55.378124 201.01666L54.315624 201.01666ZM56.925 199.15729L57.95625 199.00104Q58.05 199.62604 58.440624 199.95416Q58.846874 200.28229 59.58125 200.28229Q60.3 200.28229 60.64375 200.00104Q61.003124 199.70416 61.003124 199.29791Q61.003124 198.93854 60.690624 198.73541Q60.471874 198.59479 59.6125 198.37604Q58.45625 198.07916 58.003124 197.87604Q57.565624 197.65729 57.33125 197.28229Q57.096874 196.90729 57.096874 196.43854Q57.096874 196.03229 57.284374 195.67291Q57.471874 195.31354 57.8 195.07916Q58.05 194.90729 58.471874 194.78229Q58.89375 194.65729 59.39375 194.65729Q60.1125 194.65729 60.659374 194.87604Q61.221874 195.07916 61.4875 195.43854Q61.753124 195.79791 61.846874 196.39166L60.815624 196.53229Q60.753124 196.06354 60.409374 195.79791Q60.08125 195.51666 59.45625 195.51666Q58.7375 195.51666 58.425 195.76666Q58.1125 196.00104 58.1125 196.32916Q58.1125 196.53229 58.2375 196.68854Q58.378124 196.86041 58.64375 196.96979Q58.8 197.03229 59.58125 197.23541Q60.70625 197.54791 61.14375 197.73541Q61.58125 197.92291 61.83125 198.28229Q62.08125 198.64166 62.08125 199.18854Q62.08125 199.71979 61.76875 200.18854Q61.471874 200.64166 60.89375 200.90729Q60.315624 201.15729 59.58125 201.15729Q58.3625 201.15729 57.721874 200.65729Q57.096874 200.14166 56.925 199.15729ZM71.59688 200.00104L71.59688 201.01666L65.90938 201.01666Q65.90938 200.64166 66.03438 200.28229Q66.25313 199.70416 66.72188 199.14166Q67.20625 198.57916 68.1125 197.84479Q69.51875 196.68854 70.00313 196.01666Q70.50313 195.34479 70.50313 194.75104Q70.50313 194.12604 70.05 193.70416Q69.59688 193.26666 68.87813 193.26666Q68.1125 193.26666 67.65938 193.71979Q67.20625 194.17291 67.19063 194.98541L66.1125 194.87604Q66.22188 193.65729 66.94063 193.03229Q67.675 192.39166 68.90938 192.39166Q70.14375 192.39166 70.8625 193.07916Q71.58125 193.76666 71.58125 194.78229Q71.58125 195.29791 71.3625 195.79791Q71.15938 196.28229 70.65938 196.84479Q70.175 197.39166 69.05 198.34479Q68.09688 199.14166 67.81563 199.43854Q67.55 199.71979 67.37813 200.00104L71.59688 200.00104ZM77.01875 201.01666L75.97188 201.01666L75.97188 194.29791Q75.58125 194.65729 74.95625 195.03229Q74.34688 195.39166 73.8625 195.56354L73.8625 194.54791Q74.7375 194.12604 75.39375 193.54791Q76.06563 192.95416 76.34688 192.39166L77.01875 192.39166L77.01875 201.01666ZM82.89375 198.57916L83.925 198.43854Q83.95625 199.42291 84.28438 199.78229Q84.6125 200.14166 85.20625 200.14166Q85.62813 200.14166 85.94063 199.95416Q86.25313 199.75104 86.3625 199.42291Q86.4875 199.07916 86.4875 198.34479L86.4875 192.42291L87.6125 192.42291L87.6125 198.28229Q87.6125 199.36041 87.34688 199.95416Q87.09688 200.54791 86.53438 200.86041Q85.97188 201.15729 85.20625 201.15729Q84.08125 201.15729 83.47188 200.51666Q82.87813 199.86041 82.89375 198.57916ZM93.40938 200.25104Q92.81563 200.75104 92.26875 200.95416Q91.7375 201.15729 91.1125 201.15729Q90.08125 201.15729 89.53438 200.65729Q88.9875 200.15729 88.9875 199.37604Q88.9875 198.92291 89.19063 198.54791Q89.39375 198.15729 89.7375 197.93854Q90.08125 197.70416 90.50313 197.59479Q90.8 197.50104 91.44063 197.42291Q92.70625 197.28229 93.31563 197.06354Q93.31563 196.84479 93.31563 196.79791Q93.31563 196.14166 93.01875 195.87604Q92.6125 195.53229 91.81563 195.53229Q91.08125 195.53229 90.72188 195.79791Q90.3625 196.04791 90.19063 196.70416L89.15938 196.56354Q89.3 195.90729 89.62813 195.50104Q89.95625 195.09479 90.56563 194.87604Q91.175 194.65729 91.97188 194.65729Q92.76875 194.65729 93.26875 194.84479Q93.76875 195.03229 94.00313 195.31354Q94.2375 195.59479 94.33125 196.03229Q94.37813 196.29791 94.37813 197.00104L94.37813 198.40729Q94.37813 199.87604 94.44063 200.26666Q94.51875 200.65729 94.72188 201.01666L93.6125 201.01666Q93.45625 200.68854 93.40938 200.25104ZM93.31563 197.89166Q92.7375 198.12604 91.59688 198.29791Q90.94063 198.39166 90.675 198.51666Q90.40938 198.62604 90.25313 198.84479Q90.1125 199.06354 90.1125 199.34479Q90.1125 199.76666 90.425 200.04791Q90.75313 200.32916 91.3625 200.32916Q91.97188 200.32916 92.44063 200.06354Q92.925 199.79791 93.14375 199.32916Q93.31563 198.96979 93.31563 198.28229L93.31563 197.89166ZM96.34688 201.01666L96.34688 192.42291L97.39375 192.42291L97.39375 195.50104Q98.12813 194.65729 99.25313 194.65729Q99.95625 194.65729 100.45625 194.93854Q100.97188 195.20416 101.19063 195.68854Q101.40938 196.15729 101.40938 197.07916L101.40938 201.01666L100.3625 201.01666L100.3625 197.07916Q100.3625 196.28229 100.01875 195.92291Q99.675 195.56354 99.05 195.56354Q98.58125 195.56354 98.15938 195.81354Q97.75313 196.04791 97.56563 196.46979Q97.39375 196.87604 97.39375 197.61041L97.39375 201.01666L96.34688 201.01666ZM103.33125 201.01666L103.33125 194.79791L104.28438 194.79791L104.28438 195.73541Q104.64375 195.07916 104.94063 194.87604Q105.25313 194.65729 105.62813 194.65729Q106.15938 194.65729 106.70625 194.98541L106.34688 195.96979Q105.95625 195.73541 105.58125 195.73541Q105.22188 195.73541 104.94063 195.95416Q104.675 196.15729 104.56563 196.53229Q104.37813 197.09479 104.37813 197.75104L104.37813 201.01666L103.33125 201.01666ZM111.59688 199.01666L112.69063 199.14166Q112.44063 200.09479 111.7375 200.62604Q111.03438 201.15729 109.95625 201.15729Q108.59688 201.15729 107.78438 200.31354Q106.9875 199.46979 106.9875 197.95416Q106.9875 196.39166 107.8 195.53229Q108.6125 194.65729 109.89375 194.65729Q111.14375 194.65729 111.925 195.50104Q112.72188 196.34479 112.72188 197.89166Q112.72188 197.98541 112.72188 198.17291L108.08125 198.17291Q108.14375 199.20416 108.65938 199.75104Q109.175 200.28229 109.95625 200.28229Q110.53438 200.28229 110.94063 199.98541Q111.3625 199.67291 111.59688 199.01666ZM108.14375 197.31354L111.6125 197.31354Q111.55 196.51666 111.22188 196.12604Q110.70625 195.51666 109.90938 195.51666Q109.175 195.51666 108.675 196.00104Q108.19063 196.48541 108.14375 197.31354Z" fill-rule="nonzero"/><path fill="#000000" d="M70.01875 239.68333L68.97188 239.68333L68.97188 232.96458Q68.58125 233.32396 67.95625 233.69896Q67.34688 234.05833 66.8625 234.23021L66.8625 233.21458Q67.7375 232.79271 68.39375 232.21458Q69.06563 231.62083 69.34688 231.05833L70.01875 231.05833L70.01875 239.68333ZM73.1125 232.21458L73.1125 231.19896L78.675 231.19896L78.675 232.02708Q77.8625 232.90208 77.05 234.35521Q76.25313 235.79271 75.81563 237.32396Q75.4875 238.40208 75.40938 239.68333L74.31563 239.68333Q74.33125 238.66771 74.70625 237.23021Q75.09688 235.79271 75.8 234.46458Q76.51875 233.13646 77.33125 232.21458L73.1125 232.21458ZM82.89375 237.24583L83.925 237.10521Q83.95625 238.08958 84.28438 238.44896Q84.6125 238.80833 85.20625 238.80833Q85.62813 238.80833 85.94063 238.62083Q86.25313 238.41771 86.3625 238.08958Q86.4875 237.74583 86.4875 237.01146L86.4875 231.08958L87.6125 231.08958L87.6125 236.94896Q87.6125 238.02708 87.34688 238.62083Q87.09688 239.21458 86.53438 239.52708Q85.97188 239.82396 85.20625 239.82396Q84.08125 239.82396 83.47188 239.18333Q82.87813 238.52708 82.89375 237.24583ZM93.40938 238.91771Q92.81563 239.41771 92.26875 239.62083Q91.7375 239.82396 91.1125 239.82396Q90.08125 239.82396 89.53438 239.32396Q88.9875 238.82396 88.9875 238.04271Q88.9875 237.58958 89.19063 237.21458Q89.39375 236.82396 89.7375 236.60521Q90.08125 236.37083 90.50313 236.26146Q90.8 236.16771 91.44063 236.08958Q92.70625 235.94896 93.31563 235.73021Q93.31563 235.51146 93.31563 235.46458Q93.31563 234.80833 93.01875 234.54271Q92.6125 234.19896 91.81563 234.19896Q91.08125 234.19896 90.72188 234.46458Q90.3625 234.71458 90.19063 235.37083L89.15938 235.23021Q89.3 234.57396 89.62813 234.16771Q89.95625 233.76146 90.56563 233.54271Q91.175 233.32396 91.97188 233.32396Q92.76875 233.32396 93.26875 233.51146Q93.76875 233.69896 94.00313 233.98021Q94.2375 234.26146 94.33125 234.69896Q94.37813 234.96458 94.37813 235.66771L94.37813 237.07396Q94.37813 238.54271 94.44063 238.93333Q94.51875 239.32396 94.72188 239.68333L93.6125 239.68333Q93.45625 239.35521 93.40938 238.91771ZM93.31563 236.55833Q92.7375 236.79271 91.59688 236.96458Q90.94063 237.05833 90.675 237.18333Q90.40938 237.29271 90.25313 237.51146Q90.1125 237.73021 90.1125 238.01146Q90.1125 238.43333 90.425 238.71458Q90.75313 238.99583 91.3625 238.99583Q91.97188 238.99583 92.44063 238.73021Q92.925 238.46458 93.14375 237.99583Q93.31563 237.63646 93.31563 236.94896L93.31563 236.55833ZM96.34688 239.68333L96.34688 231.08958L97.39375 231.08958L97.39375 234.16771Q98.12813 233.32396 99.25313 233.32396Q99.95625 233.32396 100.45625 233.60521Q100.97188 233.87083 101.19063 234.35521Q101.40938 234.82396 101.40938 235.74583L101.40938 239.68333L100.3625 239.68333L100.3625 235.74583Q100.3625 234.94896 100.01875 234.58958Q99.675 234.23021 99.05 234.23021Q98.58125 234.23021 98.15938 234.48021Q97.75313 234.71458 97.56563 235.13646Q97.39375 235.54271 97.39375 236.27708L97.39375 239.68333L96.34688 239.68333ZM103.33125 239.68333L103.33125 233.46458L104.28438 233.46458L104.28438 234.40208Q104.64375 233.74583 104.94063 233.54271Q105.25313 233.32396 105.62813 233.32396Q106.15938 233.32396 106.70625 233.65208L106.34688 234.63646Q105.95625 234.40208 105.58125 234.40208Q105.22188 234.40208 104.94063 234.62083Q104.675 234.82396 104.56563 235.19896Q104.37813 235.76146 104.37813 236.41771L104.37813 239.68333L103.33125 239.68333ZM111.59688 237.68333L112.69063 237.80833Q112.44063 238.76146 111.7375 239.29271Q111.03438 239.82396 109.95625 239.82396Q108.59688 239.82396 107.78438 238.98021Q106.9875 238.13646 106.9875 236.62083Q106.9875 235.05833 107.8 234.19896Q108.6125 233.32396 109.89375 233.32396Q111.14375 233.32396 111.925 234.16771Q112.72188 235.01146 112.72188 236.55833Q112.72188 236.65208 112.72188 236.83958L108.08125 236.83958Q108.14375 237.87083 108.65938 238.41771Q109.175 238.94896 109.95625 238.94896Q110.53438 238.94896 110.94063 238.65208Q111.3625 238.33958 111.59688 237.68333ZM108.14375 235.98021L111.6125 235.98021Q111.55 235.18333 111.22188 234.79271Q110.70625 234.18333 109.90938 234.18333Q109.175 234.18333 108.675 234.66771Q108.19063 235.15208 108.14375 235.98021Z" fill-rule="nonzero"/><path fill="#000000" d="M71.59688 277.33438L71.59688 278.35L65.90938 278.35Q65.90938 277.975 66.03438 277.61563Q66.25313 277.0375 66.72188 276.475Q67.20625 275.9125 68.1125 275.17813Q69.51875 274.02188 70.00313 273.35Q70.50313 272.67813 70.50313 272.08438Q70.50313 271.45938 70.05 271.0375Q69.59688 270.6 68.87813 270.6Q68.1125 270.6 67.65938 271.05313Q67.20625 271.50626 67.19063 272.31876L66.1125 272.20938Q66.22188 270.99063 66.94063 270.36563Q67.675 269.725 68.90938 269.725Q70.14375 269.725 70.8625 270.4125Q71.58125 271.1 71.58125 272.11563Q71.58125 272.63126 71.3625 273.13126Q71.15938 273.61563 70.65938 274.17813Q70.175 274.725 69.05 275.67813Q68.09688 276.475 67.81563 276.77188Q67.55 277.05313 67.37813 277.33438L71.59688 277.33438ZM77.01875 278.35L75.97188 278.35L75.97188 271.63126Q75.58125 271.99063 74.95625 272.36563Q74.34688 272.725 73.8625 272.89688L73.8625 271.88126Q74.7375 271.45938 75.39375 270.88126Q76.06563 270.2875 76.34688 269.725L77.01875 269.725L77.01875 278.35ZM82.89375 275.9125L83.925 275.77188Q83.95625 276.75626 84.28438 277.11563Q84.6125 277.475 85.20625 277.475Q85.62813 277.475 85.94063 277.2875Q86.25313 277.08438 86.3625 276.75626Q86.4875 276.4125 86.4875 275.67813L86.4875 269.75626L87.6125 269.75626L87.6125 275.61563Q87.6125 276.69376 87.34688 277.2875Q87.09688 277.88126 86.53438 278.19376Q85.97188 278.49063 85.20625 278.49063Q84.08125 278.49063 83.47188 277.85Q82.87813 277.19376 82.89375 275.9125ZM93.40938 277.58438Q92.81563 278.08438 92.26875 278.2875Q91.7375 278.49063 91.1125 278.49063Q90.08125 278.49063 89.53438 277.99063Q88.9875 277.49063 88.9875 276.70938Q88.9875 276.25626 89.19063 275.88126Q89.39375 275.49063 89.7375 275.27188Q90.08125 275.0375 90.50313 274.92813Q90.8 274.83438 91.44063 274.75626Q92.70625 274.61563 93.31563 274.39688Q93.31563 274.17813 93.31563 274.13126Q93.31563 273.475 93.01875 273.20938Q92.6125 272.86563 91.81563 272.86563Q91.08125 272.86563 90.72188 273.13126Q90.3625 273.38126 90.19063 274.0375L89.15938 273.89688Q89.3 273.24063 89.62813 272.83438Q89.95625 272.42813 90.56563 272.20938Q91.175 271.99063 91.97188 271.99063Q92.76875 271.99063 93.26875 272.17813Q93.76875 272.36563 94.00313 272.64688Q94.2375 272.92813 94.33125 273.36563Q94.37813 273.63126 94.37813 274.33438L94.37813 275.74063Q94.37813 277.20938 94.44063 277.6Q94.51875 277.99063 94.72188 278.35L93.6125 278.35Q93.45625 278.02188 93.40938 277.58438ZM93.31563 275.225Q92.7375 275.45938 91.59688 275.63126Q90.94063 275.725 90.675 275.85Q90.40938 275.95938 90.25313 276.17813Q90.1125 276.39688 90.1125 276.67813Q90.1125 277.1 90.425 277.38126Q90.75313 277.6625 91.3625 277.6625Q91.97188 277.6625 92.44063 277.39688Q92.925 277.13126 93.14375 276.6625Q93.31563 276.30313 93.31563 275.61563L93.31563 275.225ZM96.34688 278.35L96.34688 269.75626L97.39375 269.75626L97.39375 272.83438Q98.12813 271.99063 99.25313 271.99063Q99.95625 271.99063 100.45625 272.27188Q100.97188 272.5375 101.19063 273.02188Q101.40938 273.49063 101.40938 274.4125L101.40938 278.35L100.3625 278.35L100.3625 274.4125Q100.3625 273.61563 100.01875 273.25626Q99.675 272.89688 99.05 272.89688Q98.58125 272.89688 98.15938 273.14688Q97.75313 273.38126 97.56563 273.80313Q97.39375 274.20938 97.39375 274.94376L97.39375 278.35L96.34688 278.35ZM103.33125 278.35L103.33125 272.13126L104.28438 272.13126L104.28438 273.06876Q104.64375 272.4125 104.94063 272.20938Q105.25313 271.99063 105.62813 271.99063Q106.15938 271.99063 106.70625 272.31876L106.34688 273.30313Q105.95625 273.06876 105.58125 273.06876Q105.22188 273.06876 104.94063 273.2875Q104.675 273.49063 104.56563 273.86563Q104.37813 274.42813 104.37813 275.08438L104.37813 278.35L103.33125 278.35ZM111.59688 276.35L112.69063 276.475Q112.44063 277.42813 111.7375 277.95938Q111.03438 278.49063 109.95625 278.49063Q108.59688 278.49063 107.78438 277.64688Q106.9875 276.80313 106.9875 275.2875Q106.9875 273.725 107.8 272.86563Q108.6125 271.99063 109.89375 271.99063Q111.14375 271.99063 111.925 272.83438Q112.72188 273.67813 112.72188 275.225Q112.72188 275.31876 112.72188 275.50626L108.08125 275.50626Q108.14375 276.5375 108.65938 277.08438Q109.175 277.61563 109.95625 277.61563Q110.53438 277.61563 110.94063 277.31876Q111.3625 277.00626 111.59688 276.35ZM108.14375 274.64688L111.6125 274.64688Q111.55 273.85 111.22188 273.45938Q110.70625 272.85 109.90938 272.85Q109.175 272.85 108.675 273.33438Q108.19063 273.81876 108.14375 274.64688Z" fill-rule="nonzero"/><path fill="#000000" d="M116.55 313.21564Q116.55 311.6844 116.8625 310.7625Q117.175 309.825 117.78438 309.325Q118.40938 308.825 119.34688 308.825Q120.03438 308.825 120.55 309.10626Q121.08125 309.3875 121.425 309.91876Q121.76875 310.4344 121.95625 311.1844Q122.14375 311.9344 122.14375 313.21564Q122.14375 314.73126 121.83125 315.65314Q121.53438 316.575 120.90938 317.09064Q120.3 317.59064 119.34688 317.59064Q118.1125 317.59064 117.39375 316.7Q116.55 315.6375 116.55 313.21564ZM117.62813 313.21564Q117.62813 315.325 118.12813 316.02814Q118.62813 316.73126 119.34688 316.73126Q120.08125 316.73126 120.56563 316.02814Q121.06563 315.325 121.06563 313.21564Q121.06563 311.09064 120.56563 310.40314Q120.08125 309.7 119.33125 309.7Q118.6125 309.7 118.175 310.3094Q117.62813 311.09064 117.62813 313.21564Z" fill-rule="nonzero"/><path fill="#000000" d="M237.57187 316.4344L237.57187 317.45L231.88437 317.45Q231.88437 317.075 232.00937 316.71564Q232.22812 316.1375 232.69687 315.575Q233.18124 315.0125 234.0875 314.27814Q235.49374 313.1219 235.97812 312.45Q236.47812 311.77814 236.47812 311.1844Q236.47812 310.5594 236.025 310.1375Q235.57187 309.7 234.85312 309.7Q234.0875 309.7 233.63437 310.15314Q233.18124 310.60626 233.16562 311.41876L232.0875 311.3094Q232.19687 310.09064 232.91562 309.46564Q233.65 308.825 234.88437 308.825Q236.11874 308.825 236.8375 309.5125Q237.55624 310.2 237.55624 311.21564Q237.55624 311.73126 237.3375 312.23126Q237.13437 312.71564 236.63437 313.27814Q236.15 313.825 235.025 314.77814Q234.07187 315.575 233.79062 315.8719Q233.525 316.15314 233.35312 316.4344L237.57187 316.4344Z" fill-rule="nonzero"/><path fill="#000000" d="M350.875 317.45L350.875 315.3875L347.15625 315.3875L347.15625 314.41876L351.07812 308.85626L351.9375 308.85626L351.9375 314.41876L353.09375 314.41876L353.09375 315.3875L351.9375 315.3875L351.9375 317.45L350.875 317.45ZM350.875 314.41876L350.875 310.5594L348.1875 314.41876L350.875 314.41876Z" fill-rule="nonzero"/><path fill="#000000" d="M468.44376 310.96564L467.39688 311.04376Q467.25626 310.41876 467.00626 310.1375Q466.56876 309.6844 465.94376 309.6844Q465.44376 309.6844 465.05313 309.96564Q464.56876 310.34064 464.27188 311.04376Q463.99063 311.73126 463.975 313.0125Q464.35 312.4344 464.89688 312.15314Q465.45938 311.8719 466.06876 311.8719Q467.11563 311.8719 467.85 312.65314Q468.6 313.4344 468.6 314.65314Q468.6 315.46564 468.24063 316.16876Q467.89688 316.85626 467.2875 317.23126Q466.67813 317.59064 465.9125 317.59064Q464.58438 317.59064 463.75626 316.6219Q462.92813 315.65314 462.92813 313.4344Q462.92813 310.9344 463.85 309.8094Q464.64688 308.825 466.00626 308.825Q467.02188 308.825 467.6625 309.40314Q468.31876 309.96564 468.44376 310.96564ZM464.14688 314.66876Q464.14688 315.21564 464.36563 315.71564Q464.6 316.2 465.00626 316.46564Q465.42813 316.73126 465.89688 316.73126Q466.55313 316.73126 467.0375 316.2Q467.52188 315.65314 467.52188 314.73126Q467.52188 313.84064 467.0375 313.325Q466.56876 312.8094 465.85 312.8094Q465.13126 312.8094 464.63126 313.325Q464.14688 313.84064 464.14688 314.66876Z" fill-rule="nonzero"/><path fill="#000000" d="M580.075 312.79376Q579.41876 312.54376 579.09064 312.10626Q578.77814 311.65314 578.77814 311.04376Q578.77814 310.10626 579.45 309.46564Q580.1375 308.825 581.2469 308.825Q582.3719 308.825 583.0594 309.48126Q583.7469 310.1375 583.7469 311.075Q583.7469 311.66876 583.4344 312.10626Q583.1219 312.54376 582.48126 312.79376Q583.27814 313.04376 583.6844 313.6219Q584.09064 314.2 584.09064 314.9969Q584.09064 316.09064 583.3094 316.84064Q582.54376 317.59064 581.2625 317.59064Q579.9969 317.59064 579.21564 316.84064Q578.4344 316.09064 578.4344 314.96564Q578.4344 314.1219 578.85626 313.5594Q579.29376 312.9969 580.075 312.79376ZM579.85626 310.9969Q579.85626 311.60626 580.2469 311.9969Q580.65314 312.3875 581.27814 312.3875Q581.8875 312.3875 582.27814 312.0125Q582.66876 311.6219 582.66876 311.0594Q582.66876 310.48126 582.2625 310.09064Q581.85626 309.6844 581.2625 309.6844Q580.65314 309.6844 580.2469 310.075Q579.85626 310.46564 579.85626 310.9969ZM579.52814 314.96564Q579.52814 315.41876 579.73126 315.84064Q579.95 316.2625 580.3719 316.4969Q580.79376 316.73126 581.27814 316.73126Q582.02814 316.73126 582.5125 316.2469Q583.0125 315.7625 583.0125 315.0125Q583.0125 314.2469 582.5125 313.7469Q582.0125 313.2469 581.2469 313.2469Q580.4969 313.2469 580.0125 313.7469Q579.52814 314.23126 579.52814 314.96564Z" fill-rule="nonzero"/><path fill="#757575" d="M18.51875 37.55L24.01875 23.2375L26.065624 23.2375L31.925 37.55L29.76875 37.55L28.096874 33.20625L22.1125 33.20625L20.534374 37.55L18.51875 37.55ZM22.659374 31.675L27.503124 31.675L26.01875 27.70625Q25.33125 25.89375 25.003124 24.7375Q24.721874 26.1125 24.221874 27.471874L22.659374 31.675ZM32.83125 37.55L32.83125 23.2375L34.58125 23.2375L34.58125 37.55L32.83125 37.55ZM40.70625 35.971874L40.95625 37.534374Q40.221874 37.690624 39.628124 37.690624Q38.675 37.690624 38.14375 37.39375Q37.628124 37.08125 37.409374 36.596874Q37.190624 36.096874 37.190624 34.51875L37.190624 28.55L35.909374 28.55L35.909374 27.175L37.190624 27.175L37.190624 24.6125L38.940624 23.55L38.940624 27.175L40.70625 27.175L40.70625 28.55L38.940624 28.55L38.940624 34.6125Q38.940624 35.3625 39.034374 35.58125Q39.128124 35.784374 39.33125 35.925Q39.55 36.05 39.940624 36.05Q40.221874 36.05 40.70625 35.971874ZM49.971874 34.20625L51.784374 34.440624Q51.3625 36.01875 50.190624 36.909374Q49.034374 37.784374 47.221874 37.784374Q44.95625 37.784374 43.6125 36.39375Q42.284374 34.9875 42.284374 32.45625Q42.284374 29.83125 43.628124 28.39375Q44.971874 26.940624 47.128124 26.940624Q49.20625 26.940624 50.51875 28.3625Q51.846874 29.76875 51.846874 32.346874Q51.846874 32.503124 51.83125 32.815624L44.096874 32.815624Q44.190624 34.51875 45.065624 35.425Q45.940624 36.33125 47.2375 36.33125Q48.20625 36.33125 48.878124 35.83125Q49.565624 35.315624 49.971874 34.20625ZM44.190624 31.3625L49.9875 31.3625Q49.878124 30.065624 49.33125 29.409374Q48.4875 28.39375 47.14375 28.39375Q45.940624 28.39375 45.1125 29.20625Q44.284374 30.003124 44.190624 31.3625ZM53.846874 37.55L53.846874 27.175L55.425 27.175L55.425 28.753124Q56.034374 27.64375 56.55 27.3Q57.065624 26.940624 57.675 26.940624Q58.565624 26.940624 59.4875 27.503124L58.878124 29.14375Q58.2375 28.753124 57.596874 28.753124Q57.01875 28.753124 56.55 29.1125Q56.096874 29.45625 55.89375 30.065624Q55.6125 31.003124 55.6125 32.1125L55.6125 37.55L53.846874 37.55ZM60.159374 34.45625L61.909374 34.175Q62.05 35.221874 62.721874 35.784374Q63.39375 36.33125 64.59688 36.33125Q65.8 36.33125 66.37813 35.846874Q66.97188 35.346874 66.97188 34.690624Q66.97188 34.096874 66.45625 33.753124Q66.09688 33.51875 64.65938 33.159374Q62.721874 32.659374 61.971874 32.315624Q61.2375 31.95625 60.846874 31.33125Q60.45625 30.690624 60.45625 29.925Q60.45625 29.2375 60.76875 28.64375Q61.096874 28.05 61.64375 27.659374Q62.05 27.3625 62.753124 27.159374Q63.471874 26.940624 64.28438 26.940624Q65.50313 26.940624 66.425 27.3Q67.34688 27.64375 67.78438 28.253124Q68.22188 28.846874 68.39375 29.846874L66.675 30.08125Q66.55 29.284374 65.9875 28.846874Q65.425 28.39375 64.40938 28.39375Q63.190624 28.39375 62.675 28.8Q62.159374 29.190624 62.159374 29.721874Q62.159374 30.065624 62.378124 30.346874Q62.58125 30.628124 63.05 30.815624Q63.315624 30.909374 64.59688 31.253124Q66.47188 31.753124 67.20625 32.08125Q67.94063 32.39375 68.3625 33.003124Q68.78438 33.596874 68.78438 34.503124Q68.78438 35.378124 68.26875 36.159374Q67.75313 36.940624 66.78438 37.3625Q65.81563 37.784374 64.59688 37.784374Q62.58125 37.784374 61.51875 36.940624Q60.45625 36.096874 60.159374 34.45625ZM73.75313 37.55L69.8 27.175L71.65938 27.175L73.89375 33.39375Q74.25313 34.39375 74.55 35.471874Q74.78438 34.659374 75.20625 33.503124L77.50313 27.175L79.31563 27.175L75.39375 37.55L73.75313 37.55ZM87.97188 34.20625L89.78438 34.440624Q89.3625 36.01875 88.19063 36.909374Q87.03438 37.784374 85.22188 37.784374Q82.95625 37.784374 81.6125 36.39375Q80.28438 34.9875 80.28438 32.45625Q80.28438 29.83125 81.62813 28.39375Q82.97188 26.940624 85.12813 26.940624Q87.20625 26.940624 88.51875 28.3625Q89.84688 29.76875 89.84688 32.346874Q89.84688 32.503124 89.83125 32.815624L82.09688 32.815624Q82.19063 34.51875 83.06563 35.425Q83.94063 36.33125 85.2375 36.33125Q86.20625 36.33125 86.87813 35.83125Q87.56563 35.315624 87.97188 34.20625ZM82.19063 31.3625L87.9875 31.3625Q87.87813 30.065624 87.33125 29.409374Q86.4875 28.39375 85.14375 28.39375Q83.94063 28.39375 83.1125 29.20625Q82.28438 30.003124 82.19063 31.3625ZM91.84688 37.55L91.84688 27.175L93.425 27.175L93.425 28.753124Q94.03438 27.64375 94.55 27.3Q95.06563 26.940624 95.675 26.940624Q96.56563 26.940624 97.4875 27.503124L96.87813 29.14375Q96.2375 28.753124 95.59688 28.753124Q95.01875 28.753124 94.55 29.1125Q94.09688 29.45625 93.89375 30.065624Q93.6125 31.003124 93.6125 32.1125L93.6125 37.55L91.84688 37.55ZM102.70625 35.971874L102.95625 37.534374Q102.22188 37.690624 101.62813 37.690624Q100.675 37.690624 100.14375 37.39375Q99.62813 37.08125 99.40938 36.596874Q99.19063 36.096874 99.19063 34.51875L99.19063 28.55L97.90938 28.55L97.90938 27.175L99.19063 27.175L99.19063 24.6125L100.94063 23.55L100.94063 27.175L102.70625 27.175L102.70625 28.55L100.94063 28.55L100.94063 34.6125Q100.94063 35.3625 101.03438 35.58125Q101.12813 35.784374 101.33125 35.925Q101.55 36.05 101.94063 36.05Q102.22188 36.05 102.70625 35.971874ZM111.97188 34.20625L113.78438 34.440624Q113.3625 36.01875 112.19063 36.909374Q111.03438 37.784374 109.22188 37.784374Q106.95625 37.784374 105.6125 36.39375Q104.28438 34.9875 104.28438 32.45625Q104.28438 29.83125 105.62813 28.39375Q106.97188 26.940624 109.12813 26.940624Q111.20625 26.940624 112.51875 28.3625Q113.84688 29.76875 113.84688 32.346874Q113.84688 32.503124 113.83125 32.815624L106.09688 32.815624Q106.19063 34.51875 107.06563 35.425Q107.94063 36.33125 109.2375 36.33125Q110.20625 36.33125 110.87813 35.83125Q111.56563 35.315624 111.97188 34.20625ZM106.19063 31.3625L111.9875 31.3625Q111.87813 30.065624 111.33125 29.409374Q110.4875 28.39375 109.14375 28.39375Q107.94063 28.39375 107.1125 29.20625Q106.28438 30.003124 106.19063 31.3625ZM115.87813 25.253124L115.87813 23.2375L117.64375 23.2375L117.64375 25.253124L115.87813 25.253124ZM115.87813 37.55L115.87813 27.175L117.64375 27.175L117.64375 37.55L115.87813 37.55ZM119.83125 37.55L119.83125 23.2375L121.58125 23.2375L121.58125 37.55L119.83125 37.55ZM130.65938 37.55L130.65938 36.01875Q129.45625 37.784374 127.37813 37.784374Q126.45625 37.784374 125.65938 37.440624Q124.8625 37.08125 124.47188 36.55Q124.09688 36.01875 123.94063 35.2375Q123.83125 34.721874 123.83125 33.596874L123.83125 27.175L125.58125 27.175L125.58125 32.925Q125.58125 34.3 125.69063 34.784374Q125.8625 35.471874 126.39375 35.878124Q126.94063 36.26875 127.72188 36.26875Q128.51875 36.26875 129.20625 35.8625Q129.90938 35.45625 130.19063 34.76875Q130.4875 34.065624 130.4875 32.7375L130.4875 27.175L132.2375 27.175L132.2375 37.55L130.65938 37.55ZM134.8625 37.55L134.8625 27.175L136.45625 27.175L136.45625 28.659374Q137.59688 26.940624 139.75313 26.940624Q140.69063 26.940624 141.47188 27.284374Q142.26875 27.6125 142.65938 28.159374Q143.05 28.70625 143.20625 29.45625Q143.3 29.95625 143.3 31.175L143.3 37.55L141.53438 37.55L141.53438 31.2375Q141.53438 30.159374 141.33125 29.628124Q141.12813 29.096874 140.59688 28.784374Q140.08125 28.471874 139.37813 28.471874Q138.25313 28.471874 137.44063 29.190624Q136.62813 29.89375 136.62813 31.878124L136.62813 37.55L134.8625 37.55ZM145.55 38.409374L147.25313 38.659374Q147.3625 39.45625 147.84688 39.815624Q148.50313 40.3 149.64375 40.3Q150.8625 40.3 151.51875 39.815624Q152.19063 39.33125 152.425 38.45625Q152.56563 37.909374 152.55 36.190624Q151.39375 37.55 149.675 37.55Q147.53438 37.55 146.3625 36.003124Q145.19063 34.45625 145.19063 32.3Q145.19063 30.815624 145.72188 29.565624Q146.26875 28.315624 147.28438 27.628124Q148.31563 26.940624 149.69063 26.940624Q151.51875 26.940624 152.72188 28.425L152.72188 27.175L154.33125 27.175L154.33125 36.14375Q154.33125 38.565624 153.83125 39.565624Q153.34688 40.58125 152.26875 41.159374Q151.20625 41.753124 149.64375 41.753124Q147.8 41.753124 146.64375 40.925Q145.50313 40.096874 145.55 38.409374ZM147.00313 32.175Q147.00313 34.221874 147.81563 35.159374Q148.62813 36.096874 149.84688 36.096874Q151.05 36.096874 151.8625 35.159374Q152.69063 34.221874 152.69063 32.2375Q152.69063 30.33125 151.84688 29.3625Q151.00313 28.39375 149.81563 28.39375Q148.64375 28.39375 147.81563 29.346874Q147.00313 30.3 147.00313 32.175ZM169.59688 37.55L169.59688 36.2375Q168.6125 37.784374 166.69063 37.784374Q165.45625 37.784374 164.40938 37.096874Q163.37813 36.409374 162.8 35.190624Q162.2375 33.971874 162.2375 32.378124Q162.2375 30.815624 162.75313 29.55Q163.26875 28.284374 164.3 27.6125Q165.34688 26.940624 166.6125 26.940624Q167.55 26.940624 168.28438 27.346874Q169.01875 27.7375 169.4875 28.3625L169.4875 23.2375L171.22188 23.2375L171.22188 37.55L169.59688 37.55ZM164.03438 32.378124Q164.03438 34.3625 164.87813 35.346874Q165.72188 36.33125 166.8625 36.33125Q168.01875 36.33125 168.81563 35.39375Q169.62813 34.45625 169.62813 32.51875Q169.62813 30.39375 168.8 29.39375Q167.9875 28.39375 166.78438 28.39375Q165.6125 28.39375 164.81563 29.3625Q164.03438 30.315624 164.03438 32.378124ZM180.97188 34.20625L182.78438 34.440624Q182.3625 36.01875 181.19063 36.909374Q180.03438 37.784374 178.22188 37.784374Q175.95625 37.784374 174.6125 36.39375Q173.28438 34.9875 173.28438 32.45625Q173.28438 29.83125 174.62813 28.39375Q175.97188 26.940624 178.12813 26.940624Q180.20625 26.940624 181.51875 28.3625Q182.84688 29.76875 182.84688 32.346874Q182.84688 32.503124 182.83125 32.815624L175.09688 32.815624Q175.19063 34.51875 176.06563 35.425Q176.94063 36.33125 178.2375 36.33125Q179.20625 36.33125 179.87813 35.83125Q180.56563 35.315624 180.97188 34.20625ZM175.19063 31.3625L180.9875 31.3625Q180.87813 30.065624 180.33125 29.409374Q179.4875 28.39375 178.14375 28.39375Q176.94063 28.39375 176.1125 29.20625Q175.28438 30.003124 175.19063 31.3625ZM184.84688 37.55L184.84688 27.175L186.425 27.175L186.425 28.753124Q187.03438 27.64375 187.55 27.3Q188.06563 26.940624 188.675 26.940624Q189.56563 26.940624 190.4875 27.503124L189.87813 29.14375Q189.2375 28.753124 188.59688 28.753124Q188.01875 28.753124 187.55 29.1125Q187.09688 29.45625 186.89375 30.065624Q186.6125 31.003124 186.6125 32.1125L186.6125 37.55L184.84688 37.55ZM207.4875 23.2375L209.37813 23.2375L209.37813 31.503124Q209.37813 33.659374 208.89375 34.940624Q208.40938 36.20625 207.12813 37.003124Q205.8625 37.8 203.78438 37.8Q201.76875 37.8 200.4875 37.1125Q199.22188 36.409374 198.675 35.096874Q198.12813 33.784374 198.12813 31.503124L198.12813 23.2375L200.01875 23.2375L200.01875 31.4875Q200.01875 33.3625 200.3625 34.253124Q200.70625 35.128124 201.55 35.6125Q202.39375 36.08125 203.62813 36.08125Q205.70625 36.08125 206.59688 35.14375Q207.4875 34.190624 207.4875 31.4875L207.4875 23.2375ZM211.8625 37.55L211.8625 27.175L213.45625 27.175L213.45625 28.659374Q214.59688 26.940624 216.75313 26.940624Q217.69063 26.940624 218.47188 27.284374Q219.26875 27.6125 219.65938 28.159374Q220.05 28.70625 220.20625 29.45625Q220.3 29.95625 220.3 31.175L220.3 37.55L218.53438 37.55L218.53438 31.2375Q218.53438 30.159374 218.33125 29.628124Q218.12813 29.096874 217.59688 28.784374Q217.08125 28.471874 216.37813 28.471874Q215.25313 28.471874 214.44063 29.190624Q213.62813 29.89375 213.62813 31.878124L213.62813 37.55L211.8625 37.55ZM226.70625 35.971874L226.95625 37.534374Q226.22188 37.690624 225.62813 37.690624Q224.675 37.690624 224.14375 37.39375Q223.62813 37.08125 223.40938 36.596874Q223.19063 36.096874 223.19063 34.51875L223.19063 28.55L221.90938 28.55L221.90938 27.175L223.19063 27.175L223.19063 24.6125L224.94063 23.55L224.94063 27.175L226.70625 27.175L226.70625 28.55L224.94063 28.55L224.94063 34.6125Q224.94063 35.3625 225.03438 35.58125Q225.12813 35.784374 225.33125 35.925Q225.55 36.05 225.94063 36.05Q226.22188 36.05 226.70625 35.971874ZM235.97188 34.20625L237.78438 34.440624Q237.3625 36.01875 236.19063 36.909374Q235.03438 37.784374 233.22188 37.784374Q230.95625 37.784374 229.6125 36.39375Q228.28438 34.9875 228.28438 32.45625Q228.28438 29.83125 229.62813 28.39375Q230.97188 26.940624 233.12813 26.940624Q235.20625 26.940624 236.51875 28.3625Q237.84688 29.76875 237.84688 32.346874Q237.84688 32.503124 237.83125 32.815624L230.09688 32.815624Q230.19063 34.51875 231.06563 35.425Q231.94063 36.33125 233.2375 36.33125Q234.20625 36.33125 234.87813 35.83125Q235.56563 35.315624 235.97188 34.20625ZM230.19063 31.3625L235.9875 31.3625Q235.87813 30.065624 235.33125 29.409374Q234.4875 28.39375 233.14375 28.39375Q231.94063 28.39375 231.1125 29.20625Q230.28438 30.003124 230.19063 31.3625ZM239.84688 37.55L239.84688 27.175L241.425 27.175L241.425 28.753124Q242.03438 27.64375 242.55 27.3Q243.06563 26.940624 243.675 26.940624Q244.56563 26.940624 245.4875 27.503124L244.87813 29.14375Q244.2375 28.753124 243.59688 28.753124Q243.01875 28.753124 242.55 29.1125Q242.09688 29.45625 241.89375 30.065624Q241.6125 31.003124 241.6125 32.1125L241.6125 37.55L239.84688 37.55ZM245.94063 37.55L245.94063 36.128124L252.55 28.55Q251.425 28.596874 250.56563 28.596874L246.33125 28.596874L246.33125 27.175L254.81563 27.175L254.81563 28.346874L249.19063 34.925L248.1125 36.128124Q249.28438 36.034374 250.33125 36.034374L255.12813 36.034374L255.12813 37.55L245.94063 37.55ZM263.97186 34.20625L265.78436 34.440624Q265.3625 36.01875 264.1906 36.909374Q263.03436 37.784374 261.22186 37.784374Q258.95624 37.784374 257.6125 36.39375Q256.28436 34.9875 256.28436 32.45625Q256.28436 29.83125 257.6281 28.39375Q258.97186 26.940624 261.1281 26.940624Q263.20624 26.940624 264.51874 28.3625Q265.84686 29.76875 265.84686 32.346874Q265.84686 32.503124 265.83124 32.815624L258.09686 32.815624Q258.1906 34.51875 259.0656 35.425Q259.9406 36.33125 261.2375 36.33125Q262.20624 36.33125 262.8781 35.83125Q263.5656 35.315624 263.97186 34.20625ZM258.1906 31.3625L263.9875 31.3625Q263.8781 30.065624 263.33124 29.409374Q262.4875 28.39375 261.14374 28.39375Q259.9406 28.39375 259.1125 29.20625Q258.28436 30.003124 258.1906 31.3625ZM267.8781 25.253124L267.8781 23.2375L269.64374 23.2375L269.64374 25.253124L267.8781 25.253124ZM267.8781 37.55L267.8781 27.175L269.64374 27.175L269.64374 37.55L267.8781 37.55ZM278.64374 33.753124L280.3625 33.971874Q280.08124 35.76875 278.90936 36.784374Q277.7531 37.784374 276.05 37.784374Q273.925 37.784374 272.6281 36.39375Q271.33124 35.003124 271.33124 32.409374Q271.33124 30.721874 271.8781 29.471874Q272.4406 28.20625 273.58124 27.58125Q274.72186 26.940624 276.0656 26.940624Q277.7531 26.940624 278.8156 27.8Q279.89374 28.659374 280.20624 30.221874L278.4875 30.4875Q278.2531 29.440624 277.6281 28.925Q277.0031 28.39375 276.1281 28.39375Q274.8 28.39375 273.97186 29.346874Q273.14374 30.3 273.14374 32.346874Q273.14374 34.440624 273.9406 35.39375Q274.7375 36.33125 276.03436 36.33125Q277.0656 36.33125 277.7531 35.70625Q278.45624 35.065624 278.64374 33.753124ZM281.8625 37.55L281.8625 23.2375L283.6281 23.2375L283.6281 28.3625Q284.8625 26.940624 286.7375 26.940624Q287.8781 26.940624 288.72186 27.39375Q289.58124 27.846874 289.9406 28.659374Q290.3156 29.45625 290.3156 30.971874L290.3156 37.55L288.5656 37.55L288.5656 30.971874Q288.5656 29.659374 287.9875 29.065624Q287.40936 28.45625 286.3781 28.45625Q285.59686 28.45625 284.89374 28.8625Q284.20624 29.26875 283.90936 29.971874Q283.6281 30.659374 283.6281 31.878124L283.6281 37.55L281.8625 37.55ZM292.8625 37.55L292.8625 27.175L294.45624 27.175L294.45624 28.659374Q295.59686 26.940624 297.7531 26.940624Q298.6906 26.940624 299.47186 27.284374Q300.26874 27.6125 300.65936 28.159374Q301.05 28.70625 301.20624 29.45625Q301.3 29.95625 301.3 31.175L301.3 37.55L299.53436 37.55L299.53436 31.2375Q299.53436 30.159374 299.33124 29.628124Q299.1281 29.096874 298.59686 28.784374Q298.08124 28.471874 297.3781 28.471874Q296.2531 28.471874 295.4406 29.190624Q294.6281 29.89375 294.6281 31.878124L294.6281 37.55L292.8625 37.55ZM310.97186 34.20625L312.78436 34.440624Q312.3625 36.01875 311.1906 36.909374Q310.03436 37.784374 308.22186 37.784374Q305.95624 37.784374 304.6125 36.39375Q303.28436 34.9875 303.28436 32.45625Q303.28436 29.83125 304.6281 28.39375Q305.97186 26.940624 308.1281 26.940624Q310.20624 26.940624 311.51874 28.3625Q312.84686 29.76875 312.84686 32.346874Q312.84686 32.503124 312.83124 32.815624L305.09686 32.815624Q305.1906 34.51875 306.0656 35.425Q306.9406 36.33125 308.2375 36.33125Q309.20624 36.33125 309.8781 35.83125Q310.5656 35.315624 310.97186 34.20625ZM305.1906 31.3625L310.9875 31.3625Q310.8781 30.065624 310.33124 29.409374Q309.4875 28.39375 308.14374 28.39375Q306.9406 28.39375 306.1125 29.20625Q305.28436 30.003124 305.1906 31.3625ZM314.84686 37.55L314.84686 27.175L316.425 27.175L316.425 28.753124Q317.03436 27.64375 317.55 27.3Q318.0656 26.940624 318.675 26.940624Q319.5656 26.940624 320.4875 27.503124L319.8781 29.14375Q319.2375 28.753124 318.59686 28.753124Q318.01874 28.753124 317.55 29.1125Q317.09686 29.45625 316.89374 30.065624Q316.6125 31.003124 316.6125 32.1125L316.6125 37.55L314.84686 37.55ZM321.175 25.8625L321.6281 24.471874Q323.175 25.01875 323.8781 25.425Q323.6906 23.659374 323.6906 22.9875L325.09686 22.9875Q325.0656 23.95625 324.8781 25.409374Q325.8781 24.909374 327.175 24.471874L327.6281 25.8625Q326.39374 26.26875 325.20624 26.409374Q325.8 26.925 326.8781 28.253124L325.70624 29.08125Q325.14374 28.315624 324.3625 26.9875Q323.64374 28.3625 323.09686 29.08125L321.9406 28.253124Q323.08124 26.8625 323.5656 26.409374Q322.3156 26.159374 321.175 25.8625ZM329.8781 25.253124L329.8781 23.2375L331.64374 23.2375L331.64374 25.253124L329.8781 25.253124ZM329.8781 37.55L329.8781 27.175L331.64374 27.175L331.64374 37.55L329.8781 37.55ZM333.8625 37.55L333.8625 27.175L335.45624 27.175L335.45624 28.659374Q336.59686 26.940624 338.7531 26.940624Q339.6906 26.940624 340.47186 27.284374Q341.26874 27.6125 341.65936 28.159374Q342.05 28.70625 342.20624 29.45625Q342.3 29.95625 342.3 31.175L342.3 37.55L340.53436 37.55L340.53436 31.2375Q340.53436 30.159374 340.33124 29.628124Q340.1281 29.096874 339.59686 28.784374Q339.08124 28.471874 338.3781 28.471874Q337.2531 28.471874 336.4406 29.190624Q335.6281 29.89375 335.6281 31.878124L335.6281 37.55L333.8625 37.55ZM344.8625 37.55L344.8625 27.175L346.45624 27.175L346.45624 28.659374Q347.59686 26.940624 349.7531 26.940624Q350.6906 26.940624 351.47186 27.284374Q352.26874 27.6125 352.65936 28.159374Q353.05 28.70625 353.20624 29.45625Q353.3 29.95625 353.3 31.175L353.3 37.55L351.53436 37.55L351.53436 31.2375Q351.53436 30.159374 351.33124 29.628124Q351.1281 29.096874 350.59686 28.784374Q350.08124 28.471874 349.3781 28.471874Q348.2531 28.471874 347.4406 29.190624Q346.6281 29.89375 346.6281 31.878124L346.6281 37.55L344.8625 37.55ZM362.97186 34.20625L364.78436 34.440624Q364.3625 36.01875 363.1906 36.909374Q362.03436 37.784374 360.22186 37.784374Q357.95624 37.784374 356.6125 36.39375Q355.28436 34.9875 355.28436 32.45625Q355.28436 29.83125 356.6281 28.39375Q357.97186 26.940624 360.1281 26.940624Q362.20624 26.940624 363.51874 28.3625Q364.84686 29.76875 364.84686 32.346874Q364.84686 32.503124 364.83124 32.815624L357.09686 32.815624Q357.1906 34.51875 358.0656 35.425Q358.9406 36.33125 360.2375 36.33125Q361.20624 36.33125 361.8781 35.83125Q362.5656 35.315624 362.97186 34.20625ZM357.1906 31.3625L362.9875 31.3625Q362.8781 30.065624 362.33124 29.409374Q361.4875 28.39375 360.14374 28.39375Q358.9406 28.39375 358.1125 29.20625Q357.28436 30.003124 357.1906 31.3625ZM366.8625 37.55L366.8625 27.175L368.45624 27.175L368.45624 28.659374Q369.59686 26.940624 371.7531 26.940624Q372.6906 26.940624 373.47186 27.284374Q374.26874 27.6125 374.65936 28.159374Q375.05 28.70625 375.20624 29.45625Q375.3 29.95625 375.3 31.175L375.3 37.55L373.53436 37.55L373.53436 31.2375Q373.53436 30.159374 373.33124 29.628124Q373.1281 29.096874 372.59686 28.784374Q372.08124 28.471874 371.3781 28.471874Q370.2531 28.471874 369.4406 29.190624Q368.6281 29.89375 368.6281 31.878124L368.6281 37.55L366.8625 37.55Z" fill-rule="nonzero"/></svg>